<svg id="Layer_1" enable-background="new 0 0 512.039 512.039" height="512" viewBox="0 0 512.039 512.039" width="512" xmlns="http://www.w3.org/2000/svg"><path d="m410.507 66.76h-232.712l-30.543 104.65 293.794.074z" fill="#f4f1f1"/><path d="m410.507 66.76h-116.357v104.687l146.896.037z" fill="#eceae7"/><path d="m0 88.739h76.262v82.74h-76.262z" fill="#eceae7"/><path d="m0 141.479h106.262v303.799h-106.262z" fill="#174c5e"/><path d="m76.262 141.479h435.777v303.799h-435.777z" fill="#ace233"/><path d="m294.15 141.479h217.889v303.799h-217.889z" fill="#00cb75"/><ellipse cx="294.15" cy="293.379" fill="#174c5e" rx="151.896" ry="151.896" transform="matrix(.707 -.707 .707 .707 -121.296 293.924)"/><path d="m294.15 141.482v303.793c83.756 0 151.896-68.141 151.896-151.896s-68.14-151.897-151.896-151.897z" fill="#06262f"/><ellipse cx="294.15" cy="293.379" fill="#eceae7" rx="90.87" ry="90.87" transform="matrix(.987 -.16 .16 .987 -43.196 50.906)"/><path d="m294.15 202.509v181.74c50.105 0 90.87-40.765 90.87-90.87s-40.765-90.87-90.87-90.87z" fill="#dad0cb"/></svg>